<?xml version="1.0" encoding="UTF-8" standalone="no"?>
<!-- Created with Inkscape (http://www.inkscape.org/) -->

<svg
   width="25.640121mm"
   height="28.555208mm"
   viewBox="0 0 1.0094536 1.1242208"
   version="1.1"
   id="svg5"
   inkscape:version="1.3.2 (091e20e, 2023-11-25, custom)"
   xml:space="preserve"
   sodipodi:docname="ilco-fa3.svg"
   xmlns:inkscape="http://www.inkscape.org/namespaces/inkscape"
   xmlns:sodipodi="http://sodipodi.sourceforge.net/DTD/sodipodi-0.dtd"
   xmlns="http://www.w3.org/2000/svg"
   xmlns:svg="http://www.w3.org/2000/svg"><sodipodi:namedview
     id="namedview7"
     pagecolor="#ffffff"
     bordercolor="#666666"
     borderopacity="1.0"
     inkscape:showpageshadow="2"
     inkscape:pageopacity="0.0"
     inkscape:pagecheckerboard="0"
     inkscape:deskcolor="#d1d1d1"
     inkscape:document-units="mm"
     showgrid="false"
     inkscape:zoom="0.54439187"
     inkscape:cx="887.22853"
     inkscape:cy="169.91437"
     inkscape:window-width="1920"
     inkscape:window-height="1009"
     inkscape:window-x="1912"
     inkscape:window-y="-8"
     inkscape:window-maximized="1"
     inkscape:current-layer="layer1"><inkscape:grid
       type="xygrid"
       id="grid182"
       originx="-4.1739025"
       originy="-2.7428764"
       units="in"
       spacingx="0.125"
       spacingy="0.125"
       empspacing="4"
       visible="false" /></sodipodi:namedview><defs
     id="defs2" /><g
     inkscape:label="Layer 1"
     inkscape:groupmode="layer"
     id="layer1"
     transform="translate(-4.1739025,-2.7428763)"><path
       id="path1"
       style="fill:#008080;stroke:none;stroke-width:0.0104167px;stroke-linecap:butt;stroke-linejoin:miter;stroke-opacity:1"
       d="m 4.4507905,2.7429776 c -0.010335,0.00222 -0.016868,0.039917 -0.025499,0.058041 h -0.088383 c -0.065809,-5.021e-4 -0.1104735,0.039662 -0.1284256,0.1311916 -0.032708,0.1363452 -0.057826,0.2827126 0,0.5385622 0.014475,0.045275 0.016955,0.098307 0.091141,0.1049449 h 0.085617 c 0.018092,0.00369 0.026999,0.014281 0.030383,0.029004 l 0.011047,0.1256598 c 0.00481,0.023411 -0.00257,0.056405 0.051098,0.04143 0.022737,0.00592 0.02963,0.017128 0.030375,0.030383 v 0.063523 l 0.346962,0.00138 V 3.7234796 h 0.032792 c 0.030013,0.00349 0.053116,-0.00426 0.053864,-0.048332 l 0.00276,-0.075949 c -2.282e-4,-0.024621 0.011713,-0.020847 0.022094,-0.020715 h 0.077328 c 0.040456,-0.00655 0.078402,-0.019254 0.096672,-0.073192 0.067756,-0.2000296 0.045103,-0.4087439 0,-0.6200348 -0.00939,-0.044008 -0.030445,-0.077328 -0.075956,-0.077328 h -0.124281 c -0.010127,-0.021634 -0.012531,-0.06151 -0.030375,-0.064902 H 4.4529085 c -7.226e-4,-1.84e-4 -0.00143,-1.977e-4 -0.00212,-4.98e-5 z m 0.3653014,0.067709 c 0.026758,-1.358e-4 0.059379,0.00955 0.059379,0.055234 v 0.1146213 c 0,0.030311 -0.01846,0.048332 -0.045574,0.048332 H 4.5233341 c -0.036508,0 -0.04143,-0.020903 -0.04143,-0.044187 V 2.8728318 c 0,-0.042755 0.023428,-0.060569 0.062145,-0.060766 z m 0.1903876,0.1545478 c 0.00187,0 0.00373,1.405e-4 0.0056,4.245e-4 0.00187,2.831e-4 0.00362,6.655e-4 0.00524,0.00116 0.00162,4.858e-4 0.00307,0.00103 0.00433,0.00165 0.00126,6.083e-4 0.00209,0.00111 0.00249,0.00152 4.055e-4,4.056e-4 6.736e-4,7.512e-4 7.961e-4,0.00104 1.624e-4,2.83e-4 2.842e-4,6.655e-4 3.654e-4,0.00116 1.218e-4,4.449e-4 2.003e-4,0.00104 2.409e-4,0.00177 4.06e-5,6.899e-4 5.81e-5,0.00157 5.81e-5,0.00263 0,0.00118 -3.5e-5,0.00217 -1.162e-4,0.00298 -4.07e-5,8.124e-4 -1.449e-4,0.00148 -3.074e-4,0.00201 -1.218e-4,5.266e-4 -3.226e-4,9.104e-4 -6.083e-4,0.00116 -2.436e-4,2.437e-4 -5.919e-4,3.655e-4 -0.00104,3.655e-4 -4.45e-4,0 -0.00115,-2.867e-4 -0.00213,-8.573e-4 -9.757e-4,-5.675e-4 -0.00218,-0.00118 -0.0036,-0.00183 -0.00142,-6.9e-4 -0.00307,-0.0013 -0.00493,-0.00183 -0.00187,-5.674e-4 -0.00392,-8.573e-4 -0.00615,-8.573e-4 -0.00175,0 -0.00327,2.264e-4 -0.00457,6.736e-4 -0.0013,4.056e-4 -0.00239,9.961e-4 -0.00329,0.00177 -8.532e-4,7.308e-4 -0.0015,0.00162 -0.00194,0.00267 -4.055e-4,0.00106 -6.165e-4,0.00218 -6.165e-4,0.00336 0,0.00175 4.695e-4,0.00327 0.0014,0.00457 9.757e-4,0.00126 0.00225,0.00239 0.00384,0.0034 0.00162,9.757e-4 0.00345,0.00191 0.00548,0.00281 0.00203,8.533e-4 0.0041,0.00176 0.00621,0.00273 0.00211,9.757e-4 0.00418,0.00209 0.00621,0.00336 0.00203,0.00122 0.00384,0.0027 0.00542,0.00444 0.00158,0.00171 0.00286,0.00374 0.00384,0.0061 9.757e-4,0.00231 0.00146,0.00505 0.00146,0.00822 h -8.3e-6 c 0,0.00414 -7.757e-4,0.00777 -0.00232,0.010897 -0.00154,0.00313 -0.00363,0.00575 -0.00627,0.00786 -0.00264,0.00207 -0.00573,0.00364 -0.00926,0.00469 -0.00353,0.00106 -0.00731,0.00159 -0.011329,0.00159 -0.00272,0 -0.00526,-2.265e-4 -0.00762,-6.737e-4 -0.00231,-4.449e-4 -0.00436,-9.757e-4 -0.00615,-0.00159 -0.00178,-6.491e-4 -0.00329,-0.00131 -0.00451,-0.002 -0.00118,-6.899e-4 -0.00203,-0.00131 -0.00256,-0.00184 -5.266e-4,-5.267e-4 -9.104e-4,-0.00128 -0.00116,-0.00225 -2.031e-4,-0.00102 -3.073e-4,-0.00246 -3.073e-4,-0.00433 0,-0.00126 4.33e-5,-0.00231 1.246e-4,-0.00316 8.12e-5,-8.532e-4 2.03e-4,-0.00154 3.654e-4,-0.00207 2.031e-4,-5.267e-4 4.45e-4,-8.941e-4 7.308e-4,-0.0011 3.238e-4,-2.437e-4 6.899e-4,-3.655e-4 0.0011,-3.655e-4 5.674e-4,0 0.00136,3.387e-4 0.00238,0.00103 0.00106,6.491e-4 0.0024,0.00138 0.00402,0.00219 0.00162,8.124e-4 0.00356,0.00157 0.00579,0.00226 0.00227,6.492e-4 0.00489,9.717e-4 0.00786,9.717e-4 0.00195,0 0.00369,-2.181e-4 0.00523,-6.655e-4 0.00154,-4.858e-4 0.00285,-0.00116 0.0039,-0.00201 0.0011,-8.532e-4 0.00193,-0.00191 0.0025,-0.00317 5.675e-4,-0.00126 8.492e-4,-0.00266 8.492e-4,-0.0042 0,-0.00178 -4.859e-4,-0.00331 -0.00146,-0.00457 -9.757e-4,-0.0013 -0.00225,-0.00243 -0.00384,-0.0034 -0.00154,-0.00102 -0.00331,-0.00195 -0.0053,-0.0028 -0.00199,-8.94e-4 -0.00403,-0.00183 -0.00615,-0.00281 -0.00211,-9.758e-4 -0.00417,-0.00207 -0.00615,-0.00329 -0.00199,-0.00126 -0.00377,-0.00274 -0.00536,-0.00444 -0.00154,-0.00175 -0.0028,-0.0038 -0.00378,-0.00615 -9.758e-4,-0.00236 -0.00146,-0.00517 -0.00146,-0.00846 0,-0.00378 6.9e-4,-0.00708 0.00207,-0.00993 0.00142,-0.00288 0.00331,-0.00526 0.00566,-0.00713 0.0024,-0.00191 0.0052,-0.00334 0.00841,-0.00427 0.00325,-9.349e-4 0.00669,-0.0014 0.010299,-0.0014 z m 0.062984,0.00102 c 0.0024,0 0.0043,4.33e-5 0.00572,1.246e-4 0.00142,4.06e-5 0.00251,1.811e-4 0.00329,4.245e-4 8.124e-4,2.031e-4 0.00138,5.226e-4 0.0017,9.717e-4 3.648e-4,4.45e-4 6.777e-4,0.00106 9.227e-4,0.00184 l 0.024353,0.069861 c 4.858e-4,0.00146 7.92e-4,0.00262 9.145e-4,0.00347 1.218e-4,8.532e-4 -4.44e-5,0.00151 -4.899e-4,0.00195 -4.45e-4,4.055e-4 -0.00124,6.491e-4 -0.00238,7.308e-4 -0.00114,1.218e-4 -0.00269,1.827e-4 -0.00468,1.827e-4 -0.00207,0 -0.0037,-4.34e-5 -0.00488,-1.246e-4 -0.00114,-4.06e-5 -0.00202,-1.449e-4 -0.00263,-3.073e-4 -6.083e-4,-2.03e-4 -0.00103,-4.654e-4 -0.00127,-7.879e-4 -2.436e-4,-3.239e-4 -4.532e-4,-7.512e-4 -6.165e-4,-0.00128 l -0.0053,-0.015839 h -0.029602 l -0.00499,0.015416 c -1.624e-4,5.674e-4 -3.889e-4,0.00106 -6.736e-4,0.00146 -2.437e-4,3.647e-4 -6.614e-4,6.695e-4 -0.00127,9.145e-4 -5.675e-4,2.03e-4 -0.0014,3.436e-4 -0.0025,4.246e-4 -0.00106,8.12e-5 -0.00246,1.246e-4 -0.0042,1.246e-4 -0.00187,0 -0.00333,-6.09e-5 -0.00439,-1.828e-4 -0.00106,-1.218e-4 -0.00179,-4.082e-4 -0.00219,-8.573e-4 -4.055e-4,-4.858e-4 -5.47e-4,-0.00116 -4.246e-4,-0.00201 1.218e-4,-8.532e-4 4.246e-4,-0.00199 9.145e-4,-0.00341 l 0.024303,-0.069919 c 2.436e-4,-6.9e-4 5.307e-4,-0.00125 8.573e-4,-0.00165 3.239e-4,-4.449e-4 8.288e-4,-7.675e-4 0.00152,-9.716e-4 7.308e-4,-2.436e-4 0.00172,-3.842e-4 0.00298,-4.246e-4 0.00126,-8.12e-5 0.00293,-1.245e-4 0.005,-1.245e-4 z m -0.1594731,8.3e-6 c 0.00154,0 0.00282,6.09e-5 0.00384,1.827e-4 0.00102,1.218e-4 0.00183,2.797e-4 0.00244,4.817e-4 6.083e-4,2.031e-4 0.00104,4.736e-4 0.00128,7.961e-4 2.83e-4,3.239e-4 4.246e-4,6.9e-4 4.246e-4,0.0011 v 0.04653 c 0,0.00313 3.843e-4,0.00585 0.00116,0.00816 7.716e-4,0.00227 0.00187,0.00416 0.00329,0.00566 0.00146,0.0015 0.00318,0.00264 0.00517,0.00341 0.00203,7.308e-4 0.00428,0.0011 0.00676,0.0011 0.00252,0 0.00477,-3.843e-4 0.00676,-0.00116 0.00199,-7.716e-4 0.00368,-0.00188 0.00506,-0.00335 0.00138,-0.0015 0.00244,-0.00333 0.00317,-0.00548 7.716e-4,-0.00219 0.00116,-0.00467 0.00116,-0.00743 v -0.04744 c 0,-4.055e-4 1.219e-4,-7.716e-4 3.655e-4,-0.0011 2.436e-4,-3.238e-4 6.613e-4,-5.919e-4 0.00127,-7.961e-4 6.083e-4,-2.03e-4 0.00142,-3.609e-4 0.00244,-4.817e-4 0.00106,-1.218e-4 0.00235,-1.827e-4 0.00389,-1.827e-4 0.00154,0 0.0028,6.09e-5 0.00378,1.827e-4 0.00102,1.218e-4 0.00182,2.797e-4 0.00243,4.817e-4 6.083e-4,2.031e-4 0.00104,4.736e-4 0.00128,7.961e-4 2.436e-4,3.239e-4 3.655e-4,6.9e-4 3.655e-4,0.0011 v 0.047261 c 0,0.00483 -7.063e-4,0.00916 -0.00213,0.012974 -0.00142,0.00382 -0.00351,0.00705 -0.00627,0.00968 -0.00276,0.00264 -0.00617,0.00465 -0.010233,0.00603 -0.00406,0.00138 -0.00873,0.00208 -0.014012,0.00208 -0.00495,0 -0.0094,-6.164e-4 -0.013339,-0.00184 -0.00394,-0.00126 -0.00727,-0.00315 -0.00999,-0.00566 -0.00272,-0.00252 -0.00481,-0.00564 -0.00627,-0.00938 -0.00142,-0.00378 -0.00214,-0.00818 -0.00214,-0.013215 v -0.04793 c 0,-4.055e-4 1.218e-4,-7.716e-4 3.654e-4,-0.0011 2.437e-4,-3.238e-4 6.696e-4,-5.919e-4 0.00128,-7.961e-4 6.491e-4,-2.03e-4 0.00149,-3.609e-4 0.0025,-4.817e-4 0.00102,-1.218e-4 0.00231,-1.827e-4 0.00389,-1.827e-4 z M 5.069206,2.9816697 5.05806,3.0151677 H 5.080419 L 5.069272,2.9816722 Z m -0.4152281,0.078616 c 0.035402,0 0.04155,9.88e-4 0.042028,0.00674 3.086e-4,0.00371 -0.015121,0.040645 -0.034287,0.082087 -0.019166,0.041442 -0.039568,0.085845 -0.045333,0.098666 L 4.605903,3.271091 H 4.561608 c -0.030122,0 -0.044414,-0.00149 -0.044677,-0.00466 -4.695e-4,-0.00565 0.080427,-0.1841454 0.089297,-0.197024 0.0057,-0.00828 0.010096,-0.00912 0.047751,-0.00912 z m -0.097669,6.573e-4 c 0.014541,1.211e-4 0.025958,0.0011 0.027875,0.00259 0.00272,0.00211 -0.00136,0.016502 -0.00983,0.034636 l -0.014486,0.031039 h -0.044304 c -0.024367,0 -0.044312,-0.00137 -0.044329,-0.00304 -1.63e-5,-0.00167 0.00698,-0.016726 0.015557,-0.033448 l 0.015598,-0.0304 0.038564,-0.0012 c 0.0053,-1.643e-4 0.010502,-2.148e-4 0.015349,-1.744e-4 z m 0.1939343,0.076248 c 0.034448,-3.46e-4 0.068991,8.002e-4 0.071447,0.00376 0.00166,0.002 -0.00278,0.015678 -0.00987,0.0304 l -0.012891,0.02677 h -0.023996 -0.023996 l -0.00116,-0.013954 c -6.375e-4,-0.00767 -0.00365,-0.015166 -0.00668,-0.016656 -0.014591,-0.00717 -0.052083,0.047646 -0.046787,0.068407 0.00385,0.015111 0.024729,0.011527 0.037227,-0.00639 0.00984,-0.014104 0.012306,-0.0152 0.034179,-0.0152 h 0.023581 l -0.010357,0.022999 c -0.0057,0.012651 -0.012585,0.025425 -0.0153,0.028381 -0.0071,0.00773 -0.1405097,0.00778 -0.1411506,5.8e-5 -4.178e-4,-0.00502 0.047401,-0.1125438 0.054877,-0.1233923 0.00207,-0.003 0.036426,-0.00485 0.070874,-0.00519 z m -0.2266014,8.3e-6 c 0.014847,2.504e-4 0.027058,0.0014 0.028888,0.0036 0.00296,0.00357 -0.047057,0.1152453 -0.055957,0.1249372 -0.00562,0.00612 -0.091564,0.00779 -0.092062,0.00179 -4.287e-4,-0.00514 0.052963,-0.1184912 0.058814,-0.1248624 0.0035,-0.00382 0.035572,-0.00589 0.060317,-0.00547 z m 0.3940481,1.163e-4 c 0.059736,0 0.067951,7.961e-4 0.068441,0.00666 6.001e-4,0.00722 -0.046972,0.1137358 -0.054512,0.1220468 -0.00327,0.00361 -0.024115,0.00507 -0.072485,0.00507 -0.055789,0 -0.067967,-0.00104 -0.068366,-0.00583 -5.185e-4,-0.00625 0.047714,-0.1144135 0.054794,-0.1228774 0.00303,-0.00362 0.023567,-0.00507 0.072128,-0.00507 z m -0.01206,0.033581 c -0.00472,-4.981e-4 -0.010831,0.00177 -0.017816,0.00746 -0.020406,0.016628 -0.033905,0.056615 -0.022177,0.065708 0.011047,0.00856 0.033988,-0.0101 0.045226,-0.036795 0.00876,-0.020808 0.00514,-0.035275 -0.00523,-0.036371 z m 0.1934442,0.123384 c 0.00946,0 0.016753,0.00196 0.021869,0.00586 0.00516,0.0039 0.00773,0.00914 0.00773,0.015715 0,0.00532 -0.00166,0.00986 -0.00499,0.013638 -0.00329,0.00374 -0.00827,0.0067 -0.014926,0.0089 0.00581,0.00134 0.010236,0.00321 0.013281,0.00561 0.00309,0.00236 0.00544,0.00515 0.00707,0.0084 0.00162,0.00321 0.00243,0.00666 0.00243,0.010357 0,0.00682 -0.0027,0.012913 -0.0081,0.018273 -0.00536,0.00532 -0.014053,0.00798 -0.026072,0.00798 -0.00317,0 -0.00653,-1.043e-4 -0.010108,-3.073e-4 -0.00353,-1.625e-4 -0.00839,-0.00103 -0.01456,-0.00262 v -0.013514 c 0.00893,0.00345 0.016347,0.00517 0.022235,0.00517 0.0052,0 0.00946,-0.00136 0.012791,-0.00408 0.00333,-0.00276 0.00499,-0.00646 0.00499,-0.011089 0,-0.00337 -8.778e-4,-0.00642 -0.00263,-0.00914 -0.00175,-0.00276 -0.00431,-0.00489 -0.00767,-0.0064 -0.00333,-0.00154 -0.0086,-0.00232 -0.015831,-0.00232 h -0.00555 v -0.010781 l 0.00469,-5.81e-5 c 0.0069,0 0.011854,-6.083e-4 0.014859,-0.00183 0.003,-0.00126 0.00536,-0.00319 0.00707,-0.00579 0.00171,-0.0026 0.00256,-0.0054 0.00256,-0.00841 0,-0.00361 -0.00124,-0.00656 -0.00371,-0.00883 -0.00244,-0.00227 -0.00626,-0.00341 -0.011454,-0.00341 -0.00658,0 -0.013618,0.00168 -0.02113,0.00505 v -0.012299 c 0.00378,-0.0013 0.00676,-0.00215 0.00895,-0.00256 0.00223,-4.45e-4 0.00483,-8.124e-4 0.00779,-0.0011 0.00296,-2.83e-4 0.00577,-4.327e-4 0.00841,-4.327e-4 z m -0.6557584,9.798e-4 c 0.00711,0 0.013302,0.00199 0.01858,0.00597 0.00528,0.00398 0.00932,0.00975 0.012118,0.017301 0.0028,0.00751 0.0042,0.015526 0.0042,0.024054 0,0.00824 -0.00134,0.016101 -0.00402,0.023572 -0.00268,0.00743 -0.00664,0.013261 -0.011877,0.017484 -0.00524,0.00418 -0.011573,0.00627 -0.019004,0.00627 -0.00723,0 -0.013458,-0.00201 -0.018697,-0.00603 -0.00524,-0.00402 -0.00926,-0.00978 -0.01206,-0.017293 -0.0028,-0.00751 -0.0042,-0.015517 -0.0042,-0.024004 0,-0.00845 0.00138,-0.016426 0.00414,-0.023937 0.0028,-0.00755 0.00684,-0.013339 0.012118,-0.017359 0.00528,-0.00402 0.011509,-0.00603 0.018697,-0.00603 z m -0.070284,0.0011 v 0.091304 h -0.018032 v -0.07967 h -0.01206 l -3.655e-4,-0.00901 z m 0.5364941,2.492e-4 h 0.056704 v 0.012367 h -0.037941 v 0.02741 h 0.03118 v 0.012425 h -0.03118 v 0.037941 h -0.018763 z m 0.096847,0 h 0.018763 l 0.035084,0.090144 h -0.019253 l -0.00938,-0.024054 h -0.037277 l -0.00938,0.024054 H 4.9712864 Z M 4.268443,3.2975237 H 4.287206 L 4.32229,3.3876677 H 4.303045 L 4.293655,3.3636057 H 4.256378 l -0.00938,0.024062 H 4.233351 Z m 0.2304884,0 h 0.051771 v 0.014253 H 4.512088 l -9.145e-4,0.019427 c 0.01405,0 0.02444,0.00288 0.03118,0.00865 0.00678,0.00577 0.010175,0.01298 0.010175,0.021629 0,0.00804 -0.00298,0.014801 -0.00895,0.020283 -0.00597,0.00544 -0.014844,0.00816 -0.02662,0.00816 -0.00284,0 -0.00542,-1.405e-4 -0.00773,-4.246e-4 -0.00227,-2.436e-4 -0.00623,-9.757e-4 -0.011877,-0.00219 v -0.013098 c 0.00767,0.00296 0.014088,0.00445 0.019245,0.00445 0.00564,0 0.00985,-0.00169 0.012608,-0.00506 0.00276,-0.00341 0.00414,-0.00741 0.00414,-0.012002 0,-0.00581 -0.0023,-0.010471 -0.00689,-0.014004 -0.00455,-0.00357 -0.011527,-0.00537 -0.020947,-0.00537 -0.00219,0 -0.00439,1.835e-4 -0.00658,5.471e-4 z m 0.1097541,0 h 0.016512 v 0.05256 h 0.010532 v 0.013522 h -0.010532 v 0.024062 H 4.6094164 V 3.363602 H 4.5673304 V 3.35008 Z m 0.035084,0 h 0.017725 l 0.016446,0.065965 0.015532,-0.065965 h 0.015656 l 0.014743,0.0656 0.017293,-0.0656 h 0.012974 l -0.023629,0.09014 h -0.017908 l -0.013887,-0.061821 -0.01456,0.061821 h -0.017908 z m 0.1227362,0 h 0.038797 c 0.010395,0 0.018479,0.00166 0.024245,0.00499 0.00581,0.00333 0.010418,0.00825 0.013829,0.014743 0.00345,0.00646 0.00517,0.01427 0.00517,0.023448 0,0.00897 -0.00165,0.016997 -0.00493,0.024062 -0.00325,0.00707 -0.008,0.012643 -0.014253,0.016745 -0.00625,0.0041 -0.014824,0.00615 -0.025707,0.00615 h -0.037152 z m -0.3231905,0.00901 c -0.0054,0 -0.00939,0.00298 -0.011994,0.00895 -0.00256,0.00593 -0.00384,0.015352 -0.00384,0.028265 0,0.011614 0.00131,0.020341 0.00395,0.026188 0.00264,0.00581 0.0066,0.00871 0.011877,0.00871 0.0054,0 0.00939,-0.00298 0.011944,-0.00895 0.00256,-0.00597 0.00384,-0.01541 0.00384,-0.028323 0,-0.011613 -0.00132,-0.020323 -0.00396,-0.02613 -0.0026,-0.00581 -0.00654,-0.00871 -0.011819,-0.00871 z m 0.3419535,0.00335 v 0.064994 h 0.014004 c 0.00731,0 0.012895,-0.00113 0.016753,-0.0034 0.0039,-0.00227 0.00696,-0.00611 0.00919,-0.011512 0.00227,-0.00544 0.00341,-0.011497 0.00341,-0.018156 0,-0.00638 -0.00109,-0.012014 -0.00329,-0.016927 -0.00219,-0.00491 -0.00524,-0.00863 -0.00914,-0.011146 -0.00386,-0.00256 -0.010393,-0.00385 -0.01961,-0.00385 z m -0.1754869,0.00488 -0.028016,0.035325 h 0.028016 z m 0.403168,0 -0.014012,0.03594 h 0.028024 z m -0.7379286,9.145e-4 -0.014004,0.03594 h 0.028016 z" /></g></svg>
