<?xml version="1.0" encoding="UTF-8" standalone="no"?>
<!-- Created with Inkscape (http://www.inkscape.org/) -->

<svg
   width="22.20014mm"
   height="28.540205mm"
   viewBox="0 0 0.87402126 1.1236302"
   version="1.1"
   id="svg5"
   inkscape:version="1.3.2 (091e20e, 2023-11-25, custom)"
   xml:space="preserve"
   sodipodi:docname="minutekey-cutout.svg"
   xmlns:inkscape="http://www.inkscape.org/namespaces/inkscape"
   xmlns:sodipodi="http://sodipodi.sourceforge.net/DTD/sodipodi-0.dtd"
   xmlns="http://www.w3.org/2000/svg"
   xmlns:svg="http://www.w3.org/2000/svg"><sodipodi:namedview
     id="namedview7"
     pagecolor="#ffffff"
     bordercolor="#666666"
     borderopacity="1.0"
     inkscape:showpageshadow="2"
     inkscape:pageopacity="0.0"
     inkscape:pagecheckerboard="0"
     inkscape:deskcolor="#d1d1d1"
     inkscape:document-units="mm"
     showgrid="true"
     inkscape:zoom="1.0887837"
     inkscape:cx="-143.73837"
     inkscape:cy="117.10315"
     inkscape:window-width="1920"
     inkscape:window-height="1009"
     inkscape:window-x="1912"
     inkscape:window-y="-8"
     inkscape:window-maximized="1"
     inkscape:current-layer="layer1"><inkscape:grid
       type="xygrid"
       id="grid182"
       originx="-2.6668707"
       originy="-0.92323808"
       units="in"
       spacingx="0.125"
       spacingy="0.125"
       empspacing="4"
       visible="true" /></sodipodi:namedview><defs
     id="defs2" /><g
     inkscape:label="Layer 1"
     inkscape:groupmode="layer"
     id="layer1"
     transform="translate(-2.6668708,-0.92323803)"><path
       id="path1"
       style="opacity:0.85;fill:#ffaaaa;stroke:none;stroke-width:0.0104167px;stroke-linecap:butt;stroke-linejoin:miter;stroke-opacity:1"
       d="m 2.9345474,0.92323807 c -0.039514,0 -0.1075236,0.0499099 -0.1075236,0.0499099 l -0.096015,0.0638331 c -0.032593,0.021668 -0.064138,0.059212 -0.064138,0.098351 v 0.5058497 c 0,0.052549 0.060172,0.1017694 0.1261386,0.1017694 h 0.066874 c 0.00834,0.00176 0.017897,0.00189 0.016928,0.016076 v 0.078011 c 0.00436,0.00673 0.0087,0.013476 0.01935,0.013908 h 0.041123 v 0.110055 0.085867 h 0.3628342 l 0.00242,-0.028421 0.054486,-0.00346 V 1.7852821 c 5.363e-4,-0.036782 0.01892,-0.044163 0.038482,-0.049605 l 0.1043365,-0.035915 c 0.033125,-0.011404 0.041049,-0.030817 0.041049,-0.088086 V 1.1210518 c 0,-0.035128 -0.024441,-0.07227 -0.054733,-0.090058 L 3.3390569,0.94461763 c -0.022488,-0.0132052 -0.049176,-0.0213796 -0.075254,-0.0213796 z m 0.034212,0.0932146 0.2283373,0.00257 c 0.072017,8.081e-4 0.1512327,0.07668 0.1505152,0.1017694 l 0.00257,0.020528 -0.071842,0.08637 -0.010264,-0.00257 C 3.1668663,1.1033978 3.0786751,1.1405413 3.0183555,1.1592715 c -0.016676,0.00518 -0.029236,0.00465 -0.040192,8.581e-4 -0.045561,-0.015768 -0.1224751,-0.035418 -0.1513737,0 -0.031364,0.019227 -0.034527,-0.00245 -0.026268,-0.024049 C 2.889261,1.0270749 2.9389946,1.0161177 2.968758,1.0164523 Z m 0.478265,0.1486967 c 0.00392,-4.255e-4 0.00785,0.00337 0.011763,0.00781 l 0.00855,0.2591299 c -0.00513,0.00142 -0.00785,0.00767 -0.017103,8.51e-4 L 3.3459021,1.3012396 3.4399678,1.1712454 c 0.00236,-0.00407 0.0047,-0.00584 0.00706,-0.00609 z m -0.5668169,0.065935 c 0.032265,-2.04e-5 0.069096,0.019723 0.068882,0.042788 l -0.00171,0.1847197 c -4.756e-4,0.010912 -0.00297,0.026779 -0.018811,0.027367 L 2.8447557,1.4851086 C 2.8306021,1.4846685 2.832381,1.4697092 2.8327786,1.4620117 V 1.2747242 c 0,-0.031653 0.022335,-0.043623 0.047429,-0.04364 z m 0.2128864,5.4e-4 c 0.03294,-3.065e-4 0.070649,0.020253 0.070649,0.055715 v 0.1669758 c 0,0.017242 -0.00917,0.025283 -0.01967,0.025657 l -0.064997,0.00171 c -0.014308,-1.316e-4 -0.030021,0.00332 -0.033353,-0.024799 L 3.0448714,1.2730147 c -1.314e-4,-0.028292 0.022602,-0.041154 0.048223,-0.04139 z m 0.1477147,0.083502 c 0.00418,-5.22e-4 0.0089,0.00173 0.011021,0.00407 L 3.364714,1.4577421 c 0.00354,0.00628 0.01069,0.012994 -0.00428,0.017103 H 3.2535385 c -0.00936,-2.447e-4 -0.018506,-6.078e-4 -0.01796,-0.01967 l -0.00257,-0.1274262 c -3.47e-5,-0.0088 0.00362,-0.0121 0.0078,-0.012622 z" /></g></svg>
