<?xml version="1.0" encoding="UTF-8" standalone="no"?>
<!-- Created with Inkscape (http://www.inkscape.org/) -->

<svg
   width="26.200344mm"
   height="28.101892mm"
   viewBox="0 0 1.0315096 1.1063737"
   version="1.1"
   id="svg5"
   inkscape:version="1.3.2 (091e20e, 2023-11-25, custom)"
   xml:space="preserve"
   sodipodi:docname="schlage-95.svg"
   xmlns:inkscape="http://www.inkscape.org/namespaces/inkscape"
   xmlns:sodipodi="http://sodipodi.sourceforge.net/DTD/sodipodi-0.dtd"
   xmlns="http://www.w3.org/2000/svg"
   xmlns:svg="http://www.w3.org/2000/svg"><sodipodi:namedview
     id="namedview7"
     pagecolor="#ffffff"
     bordercolor="#666666"
     borderopacity="1.0"
     inkscape:showpageshadow="2"
     inkscape:pageopacity="0.0"
     inkscape:pagecheckerboard="0"
     inkscape:deskcolor="#d1d1d1"
     inkscape:document-units="mm"
     showgrid="true"
     inkscape:zoom="4"
     inkscape:cx="-14.25"
     inkscape:cy="24.875"
     inkscape:window-width="1920"
     inkscape:window-height="1009"
     inkscape:window-x="1912"
     inkscape:window-y="-8"
     inkscape:window-maximized="1"
     inkscape:current-layer="layer1"><inkscape:grid
       type="xygrid"
       id="grid182"
       originx="-4.2316319"
       originy="-5.3350862"
       units="in"
       spacingx="0.125"
       spacingy="0.125"
       empspacing="4"
       visible="true" /></sodipodi:namedview><defs
     id="defs2" /><g
     inkscape:label="Layer 1"
     inkscape:groupmode="layer"
     id="layer1"
     transform="translate(-4.231632,-5.3350862)"><path
       id="path1"
       style="opacity:0.56;fill:#a02c2c;stroke-width:1"
       d="m 4.7434296,5.3351642 c -0.044987,0.00415 -0.1028021,-0.013332 -0.134856,0.028192 -0.038315,0.058142 -0.072989,0.1188543 -0.1073555,0.1793975 0.00396,0.075197 -0.080939,0.029738 -0.1147695,0.066883 -0.00806,0.066952 -0.1001456,0.018919 -0.1052789,0.087395 -0.0365,0.019868 -0.061591,0.04879 -0.049498,0.094636 1.025e-4,0.039407 -0.00822,0.091029 0.042317,0.1012607 0.010967,0.044972 0.042841,0.07167 0.090222,0.064964 0.016487,0.028882 0.032657,0.059497 0.065365,0.072035 0.012071,0.04226 -0.0188,0.1062248 0.028481,0.1313619 0.060365,0.008 0.028345,0.085448 0.036999,0.1275148 -0.014559,0.056274 0.03285,0.080353 0.078561,0.080784 0.0045,0.032685 -0.013987,0.086067 0.035288,0.071869 0.1034168,0 0.2068337,0 0.3102505,0 -0.00255,-0.041864 -0.00702,-0.091532 0.049488,-0.081053 0.053479,-0.020672 0.022124,-0.09548 0.031856,-0.1396768 -0.015597,-0.051852 0.034727,-0.05127 0.05868,-0.079748 0.017235,-0.040839 -0.021774,-0.1132997 0.03319,-0.128735 0.028882,-0.018831 0.026884,-0.07405 0.077553,-0.057251 0.046461,-0.00831 0.038763,-0.075601 0.088133,-0.085438 0.00859,-0.042215 0.00465,-0.086791 0.00354,-0.1296461 C 5.2417316,5.7116436 5.2034628,5.69925 5.193813,5.6601492 5.1554802,5.6537127 5.1139261,5.649881 5.1029841,5.6028538 5.0681294,5.5772222 4.9920206,5.6158401 4.9958467,5.5486486 4.9697058,5.5005453 4.9430805,5.4521334 4.9138963,5.4058881 4.8947822,5.3636962 4.8577202,5.3263875 4.8074374,5.33544 4.7860928,5.3348611 4.7647052,5.3352126 4.7434296,5.3351642 Z m 0.00396,0.089497 c 0.032027,0.00232 0.071911,-0.00947 0.093572,0.022115 0.028283,0.038119 0.074154,0.1317048 0.0025,0.1461711 -0.069087,0.014793 -0.1434347,0.014283 -0.2103524,-0.00534 -0.046472,-0.040037 -9.414e-4,-0.1143631 0.031169,-0.151405 0.022685,-0.019195 0.055952,-0.00876 0.083115,-0.011545 z M 4.948378,5.7489028 c 0.037113,-0.0035 0.035858,0.029502 -4.67e-4,0.011512 -0.063315,-5.747e-4 -0.027618,0.1094271 0.014696,0.07356 0.01396,-0.027856 -0.030047,-0.013606 -0.015713,-0.031817 0.02112,-0.00271 0.03871,-0.00189 0.031027,0.024202 0.010416,0.049519 -0.083713,0.027266 -0.080884,-0.013698 -0.00721,-0.032369 0.017015,-0.065842 0.051341,-0.06376 z m -0.489637,6.5e-6 c 0.029893,-0.00798 0.045121,0.029941 0.00704,0.011907 -0.054054,1.85e-4 -0.00757,0.037208 0.019332,0.040907 0.0493,0.040004 -0.057131,0.076876 -0.061889,0.034122 0.016257,0.015912 0.092477,-0.0035 0.038172,-0.027399 -0.042938,-0.00325 -0.053155,-0.060884 -0.00265,-0.059537 z m 0.1078321,0 c 0.037114,-0.00351 0.035856,0.029487 -4.67e-4,0.011502 -0.066041,0.00534 -0.027097,0.1127297 0.030089,0.074944 -0.013182,0.049564 -0.112055,-0.0054 -0.07825,-0.054984 0.00711,-0.01988 0.027879,-0.032305 0.048628,-0.031461 z m 0.047269,0.0024 c 0.026016,-0.0078 0.011767,0.024662 0.015316,0.039329 0.00426,0.00576 0.045254,0.011064 0.042215,-0.00479 -0.00119,-0.014414 -0.00321,-0.046992 0.015394,-0.031514 0,0.032241 0,0.064481 0,0.096722 -0.026061,0.00782 -0.011878,-0.024604 -0.015394,-0.039329 -0.00253,-0.00765 -0.045428,-0.011776 -0.042216,0.00378 9.929e-4,0.014486 0.0034,0.04794 -0.015316,0.032531 4e-7,-0.032244 7e-7,-0.064488 1e-6,-0.096732 z m 0.1016902,0 c 0.026016,-0.0078 0.011767,0.024662 0.015316,0.039329 0.00394,0.014381 -0.00797,0.044615 0.00605,0.048911 0.014424,0.00449 0.047765,-0.00993 0.047671,0.00908 -0.013285,0.00568 -0.03711,8.177e-4 -0.054455,0.00244 -0.02554,0.00656 -0.010659,-0.027299 -0.014582,-0.042354 -2e-7,-0.019133 -4e-7,-0.038266 -6e-7,-0.057399 z m 0.287345,0 c 0.022468,0 0.044937,0 0.067405,0 0.00346,0.022427 -0.03098,0.00695 -0.045379,0.011512 -0.013521,0.00142 -0.010973,0.04258 0.011442,0.030243 0.023245,-0.00866 0.038713,0.015969 0.00786,0.011506 -0.025652,-0.0069 -0.029783,0.00772 -0.026007,0.030253 0.00781,0.010911 0.035765,0.00168 0.05143,0.00473 0.017208,0.015787 -0.022611,0.011289 -0.035094,0.011503 -0.021127,0.00251 -0.039408,0.00217 -0.031652,-0.024205 0,-0.025181 0,-0.050362 0,-0.075543 z m -0.1683954,6.4e-6 c 0.023154,-0.00726 0.020816,0.022942 0.029746,0.036586 0.0083,0.021051 0.016606,0.042103 0.024909,0.063154 -0.026259,0.011448 -0.014581,-0.031952 -0.03776,-0.024956 -0.018419,-3.013e-4 -0.040182,-0.00547 -0.041033,0.019776 -0.022353,0.019583 -0.00866,-0.015965 -0.00188,-0.028585 0.00867,-0.021992 0.017347,-0.043983 0.026021,-0.065975 z m 0.00614,0.01562 c -0.00188,0.014407 -0.023645,0.042533 -0.012064,0.047658 0.022156,0.00273 0.038513,0.00148 0.021671,-0.022599 -0.0032,-0.00835 -0.0064,-0.016706 -0.00961,-0.025059 z" /></g></svg>
