<?xml version="1.0" encoding="UTF-8" standalone="no"?>
<!-- Created with Inkscape (http://www.inkscape.org/) -->

<svg
   width="26.200344mm"
   height="28.101892mm"
   viewBox="0 0 1.0315096 1.1063737"
   version="1.1"
   id="svg5"
   inkscape:version="1.3.2 (091e20e, 2023-11-25, custom)"
   xml:space="preserve"
   sodipodi:docname="schlage-95-b.svg"
   xmlns:inkscape="http://www.inkscape.org/namespaces/inkscape"
   xmlns:sodipodi="http://sodipodi.sourceforge.net/DTD/sodipodi-0.dtd"
   xmlns="http://www.w3.org/2000/svg"
   xmlns:svg="http://www.w3.org/2000/svg"><sodipodi:namedview
     id="namedview7"
     pagecolor="#ffffff"
     bordercolor="#666666"
     borderopacity="1.0"
     inkscape:showpageshadow="2"
     inkscape:pageopacity="0.0"
     inkscape:pagecheckerboard="0"
     inkscape:deskcolor="#d1d1d1"
     inkscape:document-units="mm"
     showgrid="true"
     inkscape:zoom="4"
     inkscape:cx="-20.25"
     inkscape:cy="49.875"
     inkscape:window-width="1920"
     inkscape:window-height="1009"
     inkscape:window-x="1912"
     inkscape:window-y="-8"
     inkscape:window-maximized="1"
     inkscape:current-layer="layer1"><inkscape:grid
       type="xygrid"
       id="grid182"
       originx="-4.2316319"
       originy="-5.3350862"
       units="in"
       spacingx="0.125"
       spacingy="0.125"
       empspacing="4"
       visible="true" /></sodipodi:namedview><defs
     id="defs2" /><g
     inkscape:label="Layer 1"
     inkscape:groupmode="layer"
     id="layer1"
     transform="translate(-4.231632,-5.3350862)"><path
       id="path15"
       style="opacity:0.56;fill:#a02c2c;stroke-width:1"
       d="m 4.7434296,5.3351642 c -3.757e-4,5.6e-6 -6.783e-4,2.66e-5 -0.00106,3.24e-5 -0.044498,-4.458e-4 -0.087621,4.49e-4 -0.098276,0.00343 -0.0068,0.0019 -0.012246,0.00427 -0.01757,0.00812 -0.00305,0.00177 -0.00594,0.0039 -0.00887,0.0066 -0.00293,0.0027 -0.0059,0.00596 -0.00908,0.010003 v 6.5e-6 c -0.00318,0.00405 -0.00659,0.00887 -0.010398,0.014681 v 6.5e-6 c -0.00381,0.00582 -0.00802,0.012622 -0.012821,0.020628 -0.00615,0.010255 -0.011253,0.017581 -0.015841,0.023926 -0.00273,0.00382 -0.00554,0.00771 -0.007,0.00993 -0.00384,0.00586 -0.0054,0.011589 -0.0077,0.016754 -0.0026,0.00583 -0.010026,0.017745 -0.015394,0.027638 -0.00537,0.00989 -0.015413,0.026874 -0.022319,0.037739 -0.00395,0.00622 -0.00709,0.011295 -0.00966,0.015789 -0.00513,0.00899 -0.00798,0.015654 -0.01045,0.024516 -0.00124,0.00443 -0.00239,0.00941 -0.00368,0.015504 -0.00136,0.0064 -0.00261,0.011054 -0.00448,0.014629 v 6.5e-6 c -0.00141,0.00137 -0.00316,0.00238 -0.00547,0.00316 -0.00187,6.242e-4 -0.00444,0.00102 -0.00717,0.00139 -6.529e-4,9.09e-5 -10e-4,2.515e-4 -0.00172,3.312e-4 -0.00737,8.184e-4 -0.017937,0.00112 -0.033547,0.00182 -0.016781,7.484e-4 -0.028067,0.00165 -0.036235,0.00401 -0.00272,7.834e-4 -0.0051,0.00173 -0.00722,0.00289 -0.00212,0.00116 -0.00397,0.00252 -0.00566,0.00415 -0.00169,0.00162 -0.00321,0.0035 -0.00536,0.00678 -0.00215,0.00328 -0.00469,0.00887 -0.00759,0.016067 -0.00187,0.00463 -0.00329,0.00712 -0.00479,0.00996 -0.00669,0.00895 -0.01094,0.00949 -0.015264,0.012219 -6.7e-6,9.2e-6 -1.93e-5,1.03e-5 -2.59e-5,1.94e-5 h -6.5e-6 c -0.00625,0.00398 -0.027013,0.00873 -0.036197,0.00587 -0.00306,-9.553e-4 -0.00873,2.746e-4 -0.014111,0.00248 h -5.4e-6 c -0.00538,0.00221 -0.010459,0.0054 -0.012322,0.00837 -0.00186,0.00296 -0.00696,0.01404 -0.011344,0.024613 -0.00472,0.011975 -0.00957,0.017095 -0.018335,0.022073 -0.00868,0.00369 -0.00446,0.00159 -0.016534,0.00715 -0.00265,0.00117 -0.0051,0.00285 -0.00729,0.00494 -0.00272,0.0026 -0.00483,0.00595 -0.00661,0.00959 v -1.749e-4 c -2.783e-4,5.636e-4 -4.045e-4,0.00122 -6.624e-4,0.0018 -7.579e-4,0.00175 -0.00166,0.0034 -0.00217,0.0053 -7.85e-5,2.933e-4 -5.09e-5,6.241e-4 -1.231e-4,9.203e-4 -7.42e-4,0.00288 -0.00117,0.00589 -0.00123,0.00899 -2e-6,1.116e-4 -4.43e-5,2.121e-4 -4.53e-5,3.248e-4 -2e-7,1.13e-5 -6.4e-6,2.12e-5 -6.5e-6,3.24e-5 -1.589e-4,0.016845 2.23e-5,0.022528 -1.3e-5,0.034681 -1.753e-4,0.00914 -1.969e-4,0.01801 -1.29e-5,0.02701 v 6.5e-6 c 1.5e-6,7.33e-5 -1.5e-6,1.469e-4 0,2.202e-4 5.73e-5,0.00696 2.652e-4,0.011418 3.948e-4,0.017078 1.22e-4,0.00533 1.633e-4,0.011905 3.694e-4,0.016048 7.58e-5,0.00151 2.619e-4,0.0018 3.503e-4,0.00315 4.108e-4,0.00629 8.63e-4,0.011993 0.00162,0.014707 7.388e-4,0.00265 0.00142,0.0047 0.00223,0.00648 0.00195,0.00429 0.00182,0.00261 0.00608,0.0067 0.00296,0.00196 0.00685,0.00382 0.01343,0.00638 0.017513,0.00683 0.020271,0.00962 0.028675,0.032983 0.00451,0.012375 0.00774,0.025089 0.021522,0.035024 0.00446,0.00261 0.016167,0.00473 0.026025,0.00471 0.031936,-6.87e-5 0.038667,0.00232 0.042215,0.013554 0.001,0.00271 0.00172,0.00401 0.00258,0.00641 l 0.00739,0.021652 c 0.0021,0.00256 0.00345,0.00649 0.00475,0.00745 0.00941,0.007 0.017512,0.00956 0.023356,0.012886 0.00541,0.00262 0.012534,0.0031 0.0161,0.00802 0.00198,0.00767 0.00372,0.054597 0.00305,0.082215 -2.802e-4,0.011546 8.153e-4,0.019459 0.00223,0.027593 0.00118,0.00664 0.00235,0.00776 0.00376,0.00993 0.00481,0.00778 0.013374,0.015052 0.032828,0.020816 0.00771,0.00118 0.015396,0.00381 0.017078,0.00586 0.00182,0.00222 0.00327,0.0072 0.00413,0.012459 8.71e-5,5.254e-4 1.845e-4,0.00101 2.656e-4,0.00157 0.00133,0.012018 0.00179,0.023066 0.00209,0.034959 2.993e-4,0.012314 5.254e-4,0.02606 7.324e-4,0.04493 -2.146e-4,0.046601 0.00112,0.062683 0.00411,0.07137 0.00439,0.012766 0.00871,0.017663 0.018344,0.020602 0.016301,0.00498 0.00842,0.00409 0.039125,0.00632 0.0047,-1.369e-4 0.00805,1.393e-4 0.011305,5.19e-4 0.00291,0.0017 0.00536,0.00361 0.00572,0.00512 8.535e-4,0.00359 0.00166,0.039888 0.00201,0.071869 h 0.3435286 c 3.471e-4,-0.03198 0.00116,-0.06828 0.00201,-0.071869 3.599e-4,-0.00151 0.00281,-0.00343 0.00572,-0.00512 0.00326,-3.789e-4 0.0066,-6.559e-4 0.011305,-5.19e-4 0.030707,-0.00223 0.022824,-0.00134 0.039125,-0.00632 0.00963,-0.00294 0.013826,-0.00776 0.018221,-0.020521 0.00299,-0.00869 0.00444,-0.02485 0.00423,-0.071451 2.07e-4,-0.01887 4.331e-4,-0.032616 7.325e-4,-0.04493 2.948e-4,-0.011893 7.547e-4,-0.022941 0.00209,-0.034959 8.11e-5,-5.541e-4 1.785e-4,-0.00104 2.656e-4,-0.00157 8.63e-4,-0.00526 0.00232,-0.010242 0.00413,-0.012459 0.00168,-0.00205 0.00937,-0.00468 0.017078,-0.00586 0.019453,-0.00576 0.028017,-0.013032 0.032828,-0.020816 0.00195,-0.00362 0.0029,-0.00396 0.00376,-0.00993 0.00141,-0.00813 0.00251,-0.016047 0.00223,-0.027593 -6.719e-4,-0.027618 0.00107,-0.074546 0.00305,-0.082215 0.00357,-0.00493 0.010694,-0.0054 0.0161,-0.00802 0.00584,-0.00332 0.013944,-0.00588 0.023356,-0.012886 0.0013,-9.649e-4 0.00265,-0.00489 0.00475,-0.00745 l 0.00739,-0.021652 c 8.221e-4,-0.00193 0.00136,-0.00371 0.00258,-0.00641 0.00464,-0.010317 0.01028,-0.013622 0.042216,-0.013554 0.00986,2.26e-5 0.021568,-0.0021 0.026025,-0.00471 0.013787,-0.00993 0.017009,-0.022649 0.021522,-0.035024 0.0084,-0.023362 0.011162,-0.026151 0.028675,-0.032983 0.00658,-0.00257 0.010466,-0.00442 0.01343,-0.00638 0.00426,-0.00409 0.00413,-0.0024 0.00608,-0.0067 8.057e-4,-0.00178 0.00149,-0.00383 0.00223,-0.00648 1.7e-6,-5.9e-6 -1.6e-6,-2.64e-5 0,-3.24e-5 7.579e-4,-0.00271 0.00121,-0.00839 0.00162,-0.014674 8.8e-5,-0.00135 2.745e-4,-0.00164 3.503e-4,-0.00315 v -2.6e-5 c 2.049e-4,-0.00413 2.481e-4,-0.010714 3.694e-4,-0.016022 1.299e-4,-0.00566 3.375e-4,-0.010122 3.949e-4,-0.017078 1.5e-6,-7.33e-5 -1.5e-6,-1.469e-4 0,-2.202e-4 v -6.5e-6 -3.24e-5 c 1.837e-4,-0.00899 1.618e-4,-0.017851 -1.3e-5,-0.026977 v -3.24e-5 c -3.52e-5,-0.012141 1.451e-4,-0.01784 -1.3e-5,-0.034648 v -3.24e-5 c -3.02e-5,-0.00323 -5.031e-4,-0.00635 -0.00128,-0.00934 -7.04e-5,-2.879e-4 -4.68e-5,-6.082e-4 -1.231e-4,-8.948e-4 -4.936e-4,-0.00184 -0.00138,-0.00344 -0.0021,-0.00514 -2.749e-4,-6.305e-4 -4.172e-4,-0.00134 -7.197e-4,-0.00196 v 1.944e-4 c -0.00178,-0.00364 -0.00389,-0.00701 -0.00661,-0.00961 -0.00219,-0.00209 -0.00463,-0.00377 -0.00729,-0.00494 -0.00799,-0.0032 -0.010275,-0.00434 -0.016534,-0.00715 -0.00876,-0.00498 -0.01361,-0.010097 -0.018335,-0.022073 -0.00438,-0.010572 -0.00948,-0.021647 -0.011344,-0.024613 -0.00186,-0.00297 -0.00695,-0.00616 -0.012322,-0.00837 h -6.5e-6 c -0.00538,-0.00221 -0.011051,-0.00344 -0.014111,-0.00248 -0.00918,0.00286 -0.029952,-0.00189 -0.036197,-0.00587 h -6.5e-6 c -6.6e-6,-9.1e-6 -1.92e-5,-1.03e-5 -2.59e-5,-1.94e-5 -0.00432,-0.00273 -0.00857,-0.00327 -0.015264,-0.012219 -0.0015,-0.00283 -0.00292,-0.00533 -0.00479,-0.00996 -0.00291,-0.0072 -0.00544,-0.012786 -0.00759,-0.016067 -0.00215,-0.00328 -0.00367,-0.00515 -0.00536,-0.00678 -0.00169,-0.00162 -0.00354,-0.00299 -0.00566,-0.00415 -0.00212,-0.00116 -0.00449,-0.0021 -0.00722,-0.00289 -0.00817,-0.00236 -0.019456,-0.00327 -0.036237,-0.00402 -0.01561,-6.974e-4 -0.026179,-0.001 -0.033547,-0.00182 -7.134e-4,-7.9e-5 -0.00106,-2.403e-4 -0.00172,-3.312e-4 -0.00273,-3.725e-4 -0.0053,-7.674e-4 -0.00717,-0.00139 -0.00231,-7.77e-4 -0.00406,-0.00179 -0.00547,-0.00316 v -6.5e-6 c -0.00187,-0.00358 -0.00312,-0.00823 -0.00448,-0.014629 -0.0013,-0.00609 -0.00244,-0.011073 -0.00368,-0.015504 -0.00247,-0.00886 -0.00532,-0.015528 -0.01045,-0.024516 -0.00257,-0.00449 -0.00571,-0.00957 -0.00966,-0.015789 -0.00691,-0.010864 -0.016951,-0.027846 -0.022319,-0.037739 -0.00537,-0.00989 -0.012799,-0.021808 -0.015394,-0.027638 -0.0023,-0.00517 -0.00387,-0.010898 -0.0077,-0.016754 -0.00143,-0.00218 -0.00422,-0.00603 -0.00689,-0.00977 -0.0046,-0.00636 -0.00976,-0.01376 -0.015944,-0.024082 -0.0048,-0.00801 -0.00901,-0.014812 -0.012822,-0.020628 v -6.5e-6 c -0.00381,-0.00582 -0.00721,-0.010635 -0.010398,-0.014681 v -6.5e-6 c -0.00318,-0.00405 -0.00615,-0.00731 -0.00908,-0.010003 -0.00293,-0.0027 -0.00582,-0.00483 -0.00887,-0.0066 -0.00532,-0.00384 -0.010768,-0.00622 -0.01757,-0.00812 -0.010655,-0.00298 -0.053778,-0.00387 -0.098276,-0.00343 -3.79e-4,-5.8e-6 -6.815e-4,-2.69e-5 -0.00106,-3.24e-5 l -6.5e-6,3.89e-5 c -0.0014,-2.07e-5 -0.00255,3.03e-5 -0.00395,1.29e-5 -0.00141,1.79e-5 -0.00256,-3.37e-5 -0.00396,-1.29e-5 z m 0.00396,0.089497 0.055892,1.231e-4 c 0.00319,6.8e-6 0.00628,5.955e-4 0.00933,0.00143 7.61e-4,2.089e-4 0.00152,4.235e-4 0.00227,6.815e-4 0.00137,4.649e-4 0.00268,0.00123 0.00402,0.00185 0.00292,0.00137 0.00578,0.00302 0.00855,0.00509 0.00103,7.579e-4 0.00205,0.00152 0.00306,0.00237 0.00323,0.00274 0.00638,0.00585 0.00941,0.00943 3.408e-4,4.013e-4 7.038e-4,7.261e-4 0.00104,0.00114 0.00362,0.00441 0.0071,0.00935 0.010418,0.014778 0.00763,0.012468 0.014501,0.027299 0.020544,0.043524 0.00999,0.026041 0.02116,0.067571 -0.010243,0.082533 0.00406,1.974e-4 -0.00134,0.00178 -0.010301,0.00375 -0.00913,0.00201 -0.024484,0.0045 -0.040142,0.00674 -0.0056,7.866e-4 -0.010974,0.00158 -0.016819,0.00226 -0.00363,4.268e-4 -0.00724,8.216e-4 -0.010884,0.00118 -0.012645,0.00125 -0.0253,0.00223 -0.036119,0.00228 h -1.94e-5 -2.6e-5 c -0.010819,-4.74e-5 -0.023474,-0.00103 -0.036119,-0.00228 -0.00365,-3.631e-4 -0.00725,-7.579e-4 -0.010884,-0.00118 -0.00584,-6.814e-4 -0.011223,-0.00147 -0.016819,-0.00226 -0.015658,-0.00225 -0.031016,-0.00473 -0.040142,-0.00674 -0.00896,-0.00197 -0.01436,-0.00355 -0.010301,-0.00375 -0.031403,-0.014961 -0.020228,-0.056491 -0.010243,-0.082533 0.00604,-0.016225 0.012918,-0.031056 0.020544,-0.043524 0.00332,-0.00543 0.0068,-0.010367 0.010418,-0.014778 3.408e-4,-4.14e-4 7.006e-4,-7.388e-4 0.00104,-0.00114 0.00303,-0.00358 0.00617,-0.00669 0.00941,-0.00943 0.00101,-8.471e-4 0.00203,-0.0016 0.00306,-0.00237 0.00277,-0.00206 0.00563,-0.00372 0.00855,-0.00509 0.00134,-6.21e-4 0.00265,-0.00139 0.00402,-0.00185 7.516e-4,-2.58e-4 0.00151,-4.713e-4 0.00227,-6.815e-4 0.00305,-8.311e-4 0.00614,-0.00142 0.00933,-0.00143 z M 4.948378,5.7489028 c 0.00881,0 0.018244,0.0015 0.028299,0.00451 v 0.014072 c -0.010262,-0.00472 -0.019851,-0.00707 -0.028766,-0.00707 -0.010314,0 -0.018814,0.00378 -0.0255,0.011351 -0.00663,0.00757 -0.00995,0.017208 -0.00995,0.028921 0,0.011765 0.00376,0.021432 0.011273,0.028999 0.00752,0.00752 0.017104,0.011273 0.028766,0.011273 0.00264,0 0.00601,-3.109e-4 0.010107,-9.33e-4 V 5.8136643 H 4.9438688 V 5.802158 h 0.034052 v 0.046336 c -0.010418,0.00332 -0.020291,0.00498 -0.029621,0.00498 -0.015445,0 -0.028014,-0.00479 -0.037706,-0.014383 -0.00964,-0.00959 -0.014461,-0.022054 -0.014461,-0.037395 0,-0.015704 0.00482,-0.028429 0.014461,-0.038173 0.00964,-0.00974 0.022235,-0.014616 0.037784,-0.014616 z m -0.489637,6.5e-6 c 0.00897,0 0.019047,0.00158 0.030243,0.00474 v 0.013288 c -0.011247,-0.00435 -0.02125,-0.00653 -0.030009,-0.00653 -0.013838,0 -0.020758,0.00466 -0.020758,0.013994 0,0.00378 0.0013,0.00684 0.00389,0.00917 0.00259,0.00228 0.00739,0.00464 0.014383,0.00707 l 0.0098,0.00342 0.00933,0.00319 c 0.01446,0.00508 0.021691,0.01369 0.021691,0.025818 0,0.00923 -0.00371,0.016611 -0.011117,0.022157 -0.00736,0.00549 -0.017234,0.00824 -0.029621,0.00824 -0.0086,0 -0.019721,-0.00184 -0.033352,-0.00552 v -0.01516 c 0.013579,0.00612 0.024853,0.00917 0.033819,0.00917 0.00757,0 0.013605,-0.00148 0.018115,-0.00443 0.00451,-0.00301 0.00676,-0.00702 0.00676,-0.01205 0,-0.00384 -0.00135,-0.00687 -0.00404,-0.0091 -0.00264,-0.00223 -0.00814,-0.00487 -0.016482,-0.00793 L 4.451131,5.8047163 C 4.44092,5.8009363 4.43382,5.7970463 4.429829,5.7930543 c -0.00394,-0.00399 -0.00591,-0.0093 -0.00591,-0.015938 0,-0.00897 0.00303,-0.015912 0.0091,-0.020836 0.00612,-0.00492 0.014694,-0.00739 0.025734,-0.00739 z m 0.1078321,0 c 0.00881,0 0.018244,0.0015 0.028299,0.0045 v 0.014072 c -0.010263,-0.00472 -0.019851,-0.00707 -0.028766,-0.00707 -0.010314,0 -0.018814,0.00378 -0.0255,0.011351 -0.00663,0.00757 -0.00995,0.017208 -0.00995,0.028921 0,0.011817 0.00376,0.021484 0.011273,0.028999 0.00752,0.00752 0.017182,0.011273 0.028999,0.011273 0.00715,0 0.015575,-0.00187 0.025267,-0.0056 v 0.012595 c -0.010262,0.00368 -0.019929,0.00552 -0.028999,0.00552 -0.01586,0 -0.028636,-0.00474 -0.038328,-0.014227 -0.00969,-0.00954 -0.014538,-0.022054 -0.014538,-0.037551 0,-0.015704 0.00482,-0.028429 0.014461,-0.038173 0.00964,-0.00974 0.022235,-0.01461 0.037784,-0.014609 z m 0.047269,0.0024 h 0.015316 v 0.043614 h 0.042215 v -0.043615 h 0.015394 v 0.099747 H 4.6713731 V 5.806434 H 4.6291571 V 5.85106 l -0.015316,6.4e-6 z m 0.1016902,0 h 0.015316 v 0.08824 h 0.053722 v 0.011513 h -0.069037 z m 0.287345,0 h 0.067405 v 0.011512 h -0.052089 v 0.030243 h 0.044159 v 0.011506 h -0.044159 v 0.034985 h 0.055665 v 0.011506 l -0.070981,-6.4e-6 z m -0.1683954,6.4e-6 h 0.015316 l 0.039339,0.09974 h -0.016249 l -0.00941,-0.024956 h -0.045559 l -0.00956,0.024956 -0.013217,6.5e-6 z m 0.00614,0.01562 -0.018115,0.047658 h 0.036385 z"
       sodipodi:nodetypes="ccccsccccccccccccccccccccscscccccccccccccccccccccccccscccccccccccccccsccccccccsccccccccccsccccccccccccccsccccccscsccccscccsccccccccccccccccccccccscccccccccccccccccccccccccccccccccccccccccccccscscccccccccccccccccccscscsccccccscsccccccssccccscsccscsccccsccccccscscsccscsccccccccccccccccccccccccccccccccccccccccccccccccc" /></g></svg>
