<?xml version="1.0" encoding="UTF-8" standalone="no"?>
<!-- Created with Inkscape (http://www.inkscape.org/) -->

<svg
   width="22.299995mm"
   height="28.128494mm"
   viewBox="0 0 0.87795258 1.1074211"
   version="1.1"
   id="svg5"
   inkscape:version="1.3.2 (091e20e, 2023-11-25, custom)"
   xml:space="preserve"
   sodipodi:docname="mysterykey.svg"
   xmlns:inkscape="http://www.inkscape.org/namespaces/inkscape"
   xmlns:sodipodi="http://sodipodi.sourceforge.net/DTD/sodipodi-0.dtd"
   xmlns="http://www.w3.org/2000/svg"
   xmlns:svg="http://www.w3.org/2000/svg"><sodipodi:namedview
     id="namedview7"
     pagecolor="#ffffff"
     bordercolor="#666666"
     borderopacity="1.0"
     inkscape:showpageshadow="2"
     inkscape:pageopacity="0.0"
     inkscape:pagecheckerboard="0"
     inkscape:deskcolor="#d1d1d1"
     inkscape:document-units="mm"
     showgrid="true"
     inkscape:zoom="1.5397727"
     inkscape:cx="122.42066"
     inkscape:cy="27.601476"
     inkscape:window-width="1920"
     inkscape:window-height="1009"
     inkscape:window-x="1912"
     inkscape:window-y="-8"
     inkscape:window-maximized="1"
     inkscape:current-layer="layer1"><inkscape:grid
       type="xygrid"
       id="grid182"
       originx="-6.256928"
       originy="-2.2838253"
       units="in"
       spacingx="0.125"
       spacingy="0.125"
       empspacing="4"
       visible="true" /></sodipodi:namedview><defs
     id="defs2" /><g
     inkscape:label="Layer 1"
     inkscape:groupmode="layer"
     id="layer1"
     transform="translate(-6.256928,-2.2838251)"><text
       xml:space="preserve"
       style="font-size:0.388889px;line-height:1.25;font-family:'Andika New Basic';-inkscape-font-specification:'Andika New Basic';stroke-width:0.0104167"
       x="5.1423984"
       y="5.8336329"
       id="text7"><tspan
         sodipodi:role="line"
         id="tspan7"
         style="stroke-width:0.0104167"
         x="5.1423984"
         y="5.8336329" /></text><path
       id="path7"
       style="opacity:0.4;fill:#808000;stroke:none;stroke-width:0.0104167px;stroke-linecap:butt;stroke-linejoin:miter;stroke-opacity:1"
       d="M 6.6997381 2.2838454 C 6.6709169 2.2833648 6.6429245 2.2895121 6.6159368 2.3037226 L 6.3415634 2.4579177 C 6.2865771 2.5021434 6.2604294 2.5595032 6.256928 2.6271682 L 6.256928 2.9353347 C 6.258258 3.0123667 6.2656642 3.0345704 6.405691 3.1410843 C 6.419356 3.1503642 6.4361331 3.1729726 6.4497991 3.2173375 C 6.4598581 3.2732145 6.5028068 3.2511238 6.5290227 3.2628697 L 6.5290227 3.391247 L 6.8705551 3.391247 L 6.8705551 3.2413243 L 6.9193833 3.2351191 C 6.9593272 3.2366991 6.9510721 3.2122743 6.9497991 3.1916214 C 6.9641351 3.1275284 7.0224208 3.1162693 7.0672918 3.0888788 C 7.0978568 3.0524479 7.1328931 3.023978 7.1348781 2.9366572 L 7.1348781 2.6133539 C 7.1271883 2.5248155 7.0865058 2.4843579 7.0430202 2.447969 L 6.7885035 2.3037226 C 6.7582091 2.2914346 6.7285593 2.2843261 6.6997381 2.2838454 z M 6.6972967 2.3788772 C 6.7175083 2.3795797 6.7394495 2.3869785 6.7642929 2.4038202 L 6.9778346 2.5194615 C 7.0007716 2.5352205 7.0232414 2.5504948 7.0330714 2.5810256 C 7.0360184 2.6081696 7.035097 2.637998 7.0008042 2.641898 L 6.4001368 2.641898 C 6.3816458 2.641786 6.3455044 2.6271965 6.3799952 2.5585647 C 6.3799946 2.5585649 6.3942791 2.5370271 6.4057521 2.5304071 L 6.625499 2.4035761 C 6.6481854 2.3881496 6.6713104 2.377974 6.6972967 2.3788772 z M 6.6991888 2.7880365 C 6.7191547 2.7880365 6.7359293 2.7946781 6.7495224 2.8079747 C 6.7632221 2.8211646 6.7700709 2.8375562 6.7700709 2.8571283 C 6.7700709 2.8812743 6.760315 2.8982452 6.7407741 2.9080317 C 6.7343992 2.9112209 6.7305142 2.9139906 6.7291367 2.9163325 C 6.7277578 2.9186743 6.7270818 2.92367 6.7270818 2.9313268 L 6.7270615 2.9313268 L 6.6679591 2.9313268 L 6.6679591 2.9212763 C 6.6679591 2.9079797 6.6694641 2.8981941 6.672435 2.8919184 C 6.675406 2.8855333 6.6808087 2.880574 6.6886704 2.8770665 L 6.6995143 2.8722854 C 6.7076917 2.8686692 6.7117824 2.8635609 6.7117824 2.8569656 C 6.7117824 2.8531359 6.7104526 2.8499028 6.7077947 2.8472407 C 6.7051368 2.8445785 6.7018934 2.843253 6.6980698 2.843253 C 6.6876621 2.843253 6.6824448 2.8504746 6.6824448 2.8649409 L 6.6275131 2.8649409 C 6.6275131 2.8455814 6.631959 2.8297896 6.6408798 2.8175572 C 6.6474612 2.808516 6.656018 2.8013307 6.666535 2.7960118 C 6.6770484 2.7906942 6.6879311 2.7880365 6.6991888 2.7880365 z M 6.6985581 2.9397903 C 6.7089657 2.9397903 6.7178778 2.9435502 6.7253118 2.9511021 C 6.7328518 2.9586542 6.7366237 2.9676547 6.7366237 2.9780797 C 6.7366237 2.988504 6.7329086 2.9973919 6.7254746 3.0047317 C 6.7180405 3.0119648 6.7090717 3.0155756 6.6985581 3.0155756 C 6.6876195 3.0155756 6.6785944 3.0120572 6.6714788 3.0050369 C 6.6644697 2.9979099 6.6609604 2.988873 6.6609604 2.9779169 C 6.6609604 2.9672798 6.6646193 2.9582989 6.6719467 2.9509597 C 6.6792749 2.9435138 6.6881504 2.9397903 6.6985581 2.9397903 z " /></g></svg>
